<svg class="icon" xmlns="http://www.w3.org/2000/svg" xmlns:xlink="http://www.w3.org/1999/xlink" x="0px" y="0px"
	 viewBox="0 0 28 28" enable-background="new 0 0 28 28" xml:space="preserve">
<!-- <path id="Instagram" fill-rule="evenodd" clip-rule="evenodd" fill="#D1CECC" d="M9.89,7.35h0.49v3.05H9.89V7.35z M7.35,8.26v2.15h0.49V7.44C7.55,7.58,7.35,7.89,7.35,8.26z
	 M18.22,10.3h1.36c0.51,0,0.92-0.41,0.92-0.92V8.38c0-0.51-0.41-0.92-0.92-0.92h-1.36c-0.51,0-0.92,0.41-0.92,0.92v0.99
	C17.31,9.87,17.72,10.3,18.22,10.3z M8.2,7.35h0.49v3.05H8.2V7.35z M9.05,7.35h0.49v3.05H9.05V7.35z M14-0.01
	C6.26-0.01-0.01,6.27-0.01,14S6.26,28.01,14,28.01S28.01,21.73,28.01,14S21.74-0.01,14-0.01z M6.63,7.93c0-0.71,0.58-1.3,1.3-1.3
	h12.14c0.71,0,1.3,0.59,1.3,1.3v3.05h-4.56c-0.64-0.85-1.66-1.39-2.81-1.39s-2.16,0.55-2.81,1.39H6.63V7.93z M17.09,13.1
	c0,1.7-1.39,3.09-3.09,3.09s-3.09-1.39-3.09-3.09s1.39-3.09,3.09-3.09C15.7,10.01,17.09,11.39,17.09,13.1z M21.37,20.07
	c0,0.71-0.59,1.3-1.3,1.3H7.93c-0.71,0-1.3-0.59-1.3-1.3V11.5h4.24c-0.25,0.48-0.39,1.02-0.39,1.6c0,1.94,1.58,3.52,3.52,3.52
	s3.52-1.58,3.52-3.52c0-0.57-0.14-1.12-0.39-1.6h4.24L21.37,20.07L21.37,20.07z M14,10.58c1.39,0,2.52,1.13,2.52,2.52
	s-1.13,2.52-2.52,2.52s-2.52-1.13-2.52-2.52S12.61,10.58,14,10.58z"/> -->
<path id="Instagram" fill-rule="evenodd" clip-rule="evenodd" fill="#D1CECC" 
d="M4.652 0h1.44l.988 3.702.916-3.702h1.454l-1.665 5.505v3.757h-1.431v-3.757l-1.702-5.505zm6.594 2.373c-1.119 
0-1.861.74-1.861 1.835v3.349c0 1.204.629 1.831 1.861 1.831 1.022 0 1.826-.683 1.826-1.831v-3.349c0-1.069-.797-1.835-1.826-1.835zm.531 
5.127c0 .372-.19.646-.532.646-.351 0-.554-.287-.554-.646v-3.179c0-.374.172-.651.529-.651.39 0 
.557.269.557.651v3.179zm4.729-5.07v5.186c-.155.194-.5.512-.747.512-.271 0-.338-.186-.338-.46v-5.238h-1.27v5.71c0 
.675.206 1.22.887 1.22.384 0 .918-.2 1.468-.853v.754h1.27v-6.831h-1.27zm2.203 13.858c-.448 
0-.541.315-.541.763v.659h1.069v-.66c.001-.44-.092-.762-.528-.762zm-4.703.04c-.084.043-.167.109-.25.198v4.055c.099.106.194.182.287.229.197
.1.485.107.619-.067.07-.092.105-.241.105-.449v-3.359c0-.22-.043-.386-.129-.5-.147-.193-.42-.214-.632-.107zm4.827-5.195c-2.604-.177-11.066-
.177-13.666 0-2.814.192-3.146 1.892-3.167 6.367.021 4.467.35 6.175 3.167 6.367 2.6.177 11.062.177 13.666 0 2.814-.192 3.146-1.893 3.167-6.367-
.021-4.467-.35-6.175-3.167-6.367zm-12.324 10.686h-1.363v-7.54h-1.41v-1.28h4.182v1.28h-1.41v7.54zm4.846 0h-1.21v-.718c-.223.265-.455.467-.696.605-
.652.374-1.547.365-1.547-.955v-5.438h1.209v4.988c0 .262.063.438.322.438.236 0 .564-.303.711-.487v-4.939h1.21v6.506zm4.657-1.348c0 .805-.301 
1.431-1.106 1.431-.443 0-.812-.162-1.149-.583v.5h-1.221v-8.82h1.221v2.84c.273-.333.644-.608 1.076-.608.886 0 1.18.749 1.18 1.631v3.609zm4.471-1
.752h-2.314v1.228c0 .488.042.91.528.91.511 0 .541-.344.541-.91v-.452h1.245v.489c0 1.253-.538 2.013-1.813 2.013-1.155 0-1.746-.842-1.746-2.013v-2
.921c0-1.129.746-1.914 1.837-1.914 1.161 0 1.721.738 1.721 1.914v1.656z"/>
</svg>
